<svg xmlns="http://www.w3.org/2000/svg" viewBox="0 0 1200 700" role="img" aria-labelledby="title desc">
  <title id="title">Nightwish</title>
  <desc id="desc">Original artwork inspired by symphonic metal, moonlight, and epic fantasy atmosphere.</desc>
  <defs>
    <linearGradient id="bg" x1="0" y1="0" x2="1" y2="1">
      <stop offset="0%" stop-color="#091225"/>
      <stop offset="100%" stop-color="#2b2353"/>
    </linearGradient>
  </defs>
  <rect width="1200" height="700" fill="url(#bg)"/>
  <circle cx="910" cy="125" r="110" fill="#f2f0ff" opacity=".9"/>
  <path d="M0 555L180 465L350 515L545 430L735 500L910 420L1200 455V700H0Z" fill="#0b1020"/>
  <path d="M430 430C470 250 560 170 600 155C640 170 730 250 770 430Z" fill="#6d78c7" opacity=".55"/>
  <g fill="#cfd4ff">
    <circle cx="360" cy="135" r="4"/>
    <circle cx="420" cy="98" r="3"/>
    <circle cx="530" cy="145" r="5"/>
    <circle cx="700" cy="102" r="4"/>
    <circle cx="780" cy="155" r="3"/>
  </g>
  <path d="M520 405C550 340 585 260 600 210C615 260 650 340 680 405Z" fill="#eef1ff"/>
  <text x="82" y="600" fill="#f2f3ff" font-size="90" font-family="Trebuchet MS, Verdana, sans-serif" font-weight="700" letter-spacing="5">NIGHTWISH</text>
  <text x="86" y="646" fill="#c3c9ff" font-size="29" font-family="Trebuchet MS, Verdana, sans-serif" letter-spacing="3">Moonlit symphonic drama and cinematic grandeur</text>
</svg>
