<svg xmlns="http://www.w3.org/2000/svg" viewBox="0 0 1200 700" role="img" aria-labelledby="title desc">
  <title id="title">Iron Maiden</title>
  <desc id="desc">Original artwork inspired by galloping heavy metal, stage lights, and a fearless mascot silhouette.</desc>
  <rect width="1200" height="700" fill="#180d12"/>
  <circle cx="900" cy="150" r="130" fill="#ffb14d" opacity=".22"/>
  <path d="M0 560L170 460L350 500L580 420L780 485L1030 425L1200 455V700H0Z" fill="#0f080b"/>
  <rect x="210" y="170" width="780" height="300" rx="24" fill="#28121a" stroke="#ff7445" stroke-width="5"/>
  <path d="M735 410L680 240L620 410H665L645 505L735 365H690Z" fill="#ffd36d"/>
  <path d="M355 415C380 290 465 240 555 220C575 280 560 355 525 415Z" fill="#ff8f59"/>
  <path d="M515 250C565 230 610 242 650 278C627 300 590 315 545 315Z" fill="#ffe2a6"/>
  <text x="82" y="600" fill="#fff1d8" font-size="88" font-family="Trebuchet MS, Verdana, sans-serif" font-weight="700" letter-spacing="5">IRON MAIDEN</text>
  <text x="86" y="646" fill="#ffbd8c" font-size="28" font-family="Trebuchet MS, Verdana, sans-serif" letter-spacing="3">Galloping anthems and blazing heavy-metal charge</text>
</svg>
