<svg xmlns="http://www.w3.org/2000/svg" viewBox="0 0 1200 700" role="img" aria-labelledby="title desc">
  <title id="title">Slayer</title>
  <desc id="desc">Original artwork inspired by fire, aggression, and relentless speed metal.</desc>
  <defs>
    <linearGradient id="bg" x1="0" y1="0" x2="0" y2="1">
      <stop offset="0%" stop-color="#250705"/>
      <stop offset="100%" stop-color="#090202"/>
    </linearGradient>
  </defs>
  <rect width="1200" height="700" fill="url(#bg)"/>
  <circle cx="610" cy="180" r="180" fill="#ff7d32" opacity=".18"/>
  <path d="M0 540L155 490L360 515L580 450L815 520L1200 435V700H0Z" fill="#120404"/>
  <g fill="#ffb05b">
    <path d="M330 470C308 395 348 348 366 275C388 345 432 402 406 470Z"/>
    <path d="M500 470C478 405 516 360 535 290C557 355 600 410 575 470Z"/>
    <path d="M670 470C648 385 688 330 708 248C732 334 777 398 748 470Z"/>
    <path d="M840 470C820 410 855 365 874 295C895 352 938 409 913 470Z"/>
  </g>
  <g stroke="#ffd8a1" stroke-width="12" stroke-linecap="round">
    <line x1="490" y1="205" x2="710" y2="425"/>
    <line x1="710" y1="205" x2="490" y2="425"/>
  </g>
  <text x="82" y="600" fill="#fff0da" font-size="100" font-family="Trebuchet MS, Verdana, sans-serif" font-weight="700" letter-spacing="7">SLAYER</text>
  <text x="86" y="646" fill="#ffb07f" font-size="30" font-family="Trebuchet MS, Verdana, sans-serif" letter-spacing="3">Pure velocity, scorched stage, no mercy</text>
</svg>
