<svg xmlns="http://www.w3.org/2000/svg" viewBox="0 0 1200 700" role="img" aria-labelledby="title desc">
  <title id="title">Megadeth</title>
  <desc id="desc">Original artwork inspired by dystopian thrash, neon warning signs, and tactical precision.</desc>
  <rect width="1200" height="700" fill="#0c1514"/>
  <rect x="0" y="0" width="1200" height="700" fill="#102524" opacity=".55"/>
  <path d="M0 520L220 470L420 520L600 455L790 515L1200 430V700H0Z" fill="#061010"/>
  <g stroke="#69e7c8" stroke-width="5" opacity=".8">
    <line x1="180" y1="120" x2="1020" y2="120"/>
    <line x1="180" y1="455" x2="1020" y2="455"/>
    <line x1="220" y1="90" x2="220" y2="500"/>
    <line x1="980" y1="90" x2="980" y2="500"/>
  </g>
  <rect x="360" y="180" width="480" height="200" rx="18" fill="#0a1c1a" stroke="#69e7c8" stroke-width="4"/>
  <circle cx="600" cy="280" r="82" fill="none" stroke="#a9ffec" stroke-width="14"/>
  <path d="M600 205L625 260H687L638 295L658 355L600 320L542 355L562 295L513 260H575Z" fill="#c7fff2"/>
  <text x="80" y="600" fill="#eafffa" font-size="92" font-family="Trebuchet MS, Verdana, sans-serif" font-weight="700" letter-spacing="6">MEGADETH</text>
  <text x="84" y="648" fill="#8fe7d8" font-size="29" font-family="Trebuchet MS, Verdana, sans-serif" letter-spacing="3">Dystopian precision, cold riffs, high-speed attack</text>
</svg>
