<svg xmlns="http://www.w3.org/2000/svg" viewBox="0 0 1200 700" role="img" aria-labelledby="title desc">
  <title id="title">Pyro Hall</title>
  <desc id="desc">Stylized indoor festival hall with fire columns and warm orange lighting.</desc>
  <defs>
    <linearGradient id="bg" x1="0" y1="0" x2="1" y2="1">
      <stop offset="0%" stop-color="#180908" />
      <stop offset="45%" stop-color="#44150e" />
      <stop offset="100%" stop-color="#120606" />
    </linearGradient>
    <linearGradient id="hall" x1="0" y1="0" x2="0" y2="1">
      <stop offset="0%" stop-color="#4f1f14" />
      <stop offset="100%" stop-color="#170707" />
    </linearGradient>
    <radialGradient id="flare" cx=".5" cy=".5" r=".5">
      <stop offset="0%" stop-color="#ffd39a" stop-opacity=".95" />
      <stop offset="60%" stop-color="#ff7a30" stop-opacity=".4" />
      <stop offset="100%" stop-color="#ff7a30" stop-opacity="0" />
    </radialGradient>
  </defs>
  <rect width="1200" height="700" fill="url(#bg)" />
  <circle cx="600" cy="145" r="210" fill="url(#flare)" />
  <path d="M0 520L155 470L300 505L455 440L610 500L760 430L930 488L1200 430V700H0Z" fill="url(#hall)" />
  <rect x="170" y="180" width="860" height="332" rx="26" fill="#1d0c0b" stroke="#ff8d43" stroke-width="5" />
  <rect x="230" y="228" width="740" height="212" rx="14" fill="#32110e" />
  <g opacity=".95">
    <path d="M300 455C286 405 313 376 325 338C339 374 374 406 352 455Z" fill="#ff8c3b" />
    <path d="M438 455C423 412 450 382 463 338C476 378 508 409 488 455Z" fill="#ffb24f" />
    <path d="M574 455C561 399 587 375 600 320C614 375 644 404 626 455Z" fill="#ff7a30" />
    <path d="M710 455C695 412 720 382 734 338C748 378 780 409 760 455Z" fill="#ffb24f" />
    <path d="M848 455C833 405 859 378 874 334C887 375 919 406 900 455Z" fill="#ff8c3b" />
  </g>
  <g fill="#ffd39a" opacity=".7">
    <circle cx="300" cy="255" r="20" />
    <circle cx="450" cy="255" r="20" />
    <circle cx="600" cy="255" r="20" />
    <circle cx="750" cy="255" r="20" />
    <circle cx="900" cy="255" r="20" />
  </g>
  <text x="90" y="585" fill="#ffe8c9" font-size="88" font-family="Trebuchet MS, Verdana, sans-serif" font-weight="700" letter-spacing="4">PYRO HALL</text>
  <text x="92" y="635" fill="#ffb57a" font-size="28" font-family="Trebuchet MS, Verdana, sans-serif" letter-spacing="3">Indoor fire-lit hall with heat, smoke and night-show energy</text>
</svg>
